<svg t="1713693091751" class="icon" viewBox="0 0 1024 1024" version="1.1" xmlns="http://www.w3.org/2000/svg" p-id="9446" data-spm-anchor-id="a313x.search_index.0.i16.59253a81VoOZsh" width="48" height="48"><path d="M512 0c282.771911 0 512 229.228089 512 512S794.771911 1024 512 1024 0 794.771911 0 512 229.228089 0 512 0z m136.681244 420.977778C534.072889 420.977778 443.733333 497.481956 443.733333 591.303111c0 93.980444 90.294044 170.325333 204.947911 170.325333 23.984356 0 48.184889-5.916444 72.2944-11.787377L787.069156 785.066667l-18.1248-58.629689C817.299911 691.074844 853.333333 644.232533 853.333333 591.303111 853.333333 497.481956 756.929422 420.977778 648.681244 420.977778z m-234.496-170.666667C280.325689 250.311111 170.666667 336.6912 170.666667 446.350222c0 63.294578 36.465778 115.291022 97.439289 155.613867L243.712 671.288889l85.117156-40.413867c30.469689 5.7344 54.920533 11.582578 85.2992 11.582578 7.634489 0 15.234844-0.375467 22.7328-0.910222a163.009422 163.009422 0 0 1-7.509334-48.321422c0.056889-100.670578 91.4432-182.408533 207.109689-182.408534 7.896178 0 15.712711 0.546133 23.438222 1.376711C638.862222 319.351467 533.959111 250.311111 414.185244 250.311111z m168.618667 273.066667C601.884444 523.377778 614.4 534.801067 614.4 546.133333c0 11.491556-12.504178 22.755556-31.607467 22.755556C570.197333 568.888889 557.511111 557.624889 557.511111 546.133333c0-11.332267 12.686222-22.755556 25.281422-22.755555z m136.419556 0C738.2016 523.377778 750.933333 534.801067 750.933333 546.133333c0 11.491556-12.731733 22.755556-31.709866 22.755556C706.673778 568.888889 694.044444 557.624889 694.044444 546.133333c0-11.332267 12.629333-22.755556 25.179023-22.755555z m-215.495111-170.666667c18.659556 0 31.0272 11.264 31.0272 28.398933 0 17.066667-12.367644 28.489956-31.0272 28.489956C485.148444 409.6 466.488889 398.165333 466.488889 381.110044 466.488889 363.986489 485.148444 352.711111 503.728356 352.711111zM333.141333 352.711111c18.545778 0 30.947556 11.264 30.947556 28.398933C364.043378 398.165333 351.687111 409.6 333.141333 409.6 314.595556 409.6 295.822222 398.165333 295.822222 381.110044 295.822222 363.986489 314.550044 352.711111 333.141333 352.711111z" fill="#64C23F" p-id="9447" data-spm-anchor-id="a313x.search_index.0.i15.59253a81VoOZsh" class="selected"></path></svg>